<?xml version="1.0" encoding="UTF-8" standalone="no"?>
<!-- Uploaded to: SVG Repo, www.svgrepo.com, Generator: SVG Repo Mixer Tools -->

<svg
   width="800px"
   height="800px"
   viewBox="0 0 24 24"
   fill="none"
   version="1.1"
   id="svg1"
   sodipodi:docname="icon-external-link.svg"
   inkscape:version="1.3.2 (091e20e, 2023-11-25, custom)"
   xmlns:inkscape="http://www.inkscape.org/namespaces/inkscape"
   xmlns:sodipodi="http://sodipodi.sourceforge.net/DTD/sodipodi-0.dtd"
   xmlns="http://www.w3.org/2000/svg"
   xmlns:svg="http://www.w3.org/2000/svg">
  <defs
     id="defs1">
    <filter
       style="color-interpolation-filters:sRGB;"
       inkscape:label="Invert"
       id="filter1"
       x="-0.066823035"
       y="-0.066666667"
       width="1.1334897"
       height="1.1334896">
      <feColorMatrix
         values="1 0 0 0 0 0 1 0 0 0 0 0 1 0 0 -0.21 -0.72 -0.07 2 0 "
         result="fbSourceGraphic"
         id="feColorMatrix1" />
      <feColorMatrix
         result="fbSourceGraphicAlpha"
         in="fbSourceGraphic"
         values="0 0 0 -1 0 0 0 0 -1 0 0 0 0 -1 0 0 0 0 1 0"
         id="feColorMatrix6" />
      <feColorMatrix
         id="feColorMatrix7"
         values="-1 0 0 0 1 0 -1 0 0 1 0 0 -1 0 1 -0.21 -0.72 -0.07 2 0 "
         result="color2"
         in="fbSourceGraphic" />
    </filter>
  </defs>
  <sodipodi:namedview
     id="namedview1"
     pagecolor="#ffffff"
     bordercolor="#000000"
     borderopacity="0.25"
     inkscape:showpageshadow="2"
     inkscape:pageopacity="0.0"
     inkscape:pagecheckerboard="true"
     inkscape:deskcolor="#d1d1d1"
     showgrid="true"
     inkscape:zoom="1.11125"
     inkscape:cx="15.748031"
     inkscape:cy="431.49606"
     inkscape:window-width="3840"
     inkscape:window-height="2036"
     inkscape:window-x="3828"
     inkscape:window-y="-12"
     inkscape:window-maximized="1"
     inkscape:current-layer="svg1">
    <inkscape:grid
       id="grid6"
       units="px"
       originx="0"
       originy="0"
       spacingx="0.03"
       spacingy="0.03"
       empcolor="#0099e5"
       empopacity="0.30196078"
       color="#0099e5"
       opacity="0.14901961"
       empspacing="5"
       dotted="false"
       gridanglex="30"
       gridanglez="30"
       visible="true" />
  </sodipodi:namedview>
  <g
     id="Interface / External_Link"
     style="filter:url(#filter1)">
    <path
       id="Vector"
       d="M10.0002 5H8.2002C7.08009 5 6.51962 5 6.0918 5.21799C5.71547 5.40973 5.40973 5.71547 5.21799 6.0918C5 6.51962 5 7.08009 5 8.2002V15.8002C5 16.9203 5 17.4801 5.21799 17.9079C5.40973 18.2842 5.71547 18.5905 6.0918 18.7822C6.5192 19 7.07899 19 8.19691 19H15.8031C16.921 19 17.48 19 17.9074 18.7822C18.2837 18.5905 18.5905 18.2839 18.7822 17.9076C19 17.4802 19 16.921 19 15.8031V14M20 9V4M20 4H15M20 4L13 11"
       stroke="#000000"
       stroke-width="2"
       stroke-linecap="round"
       stroke-linejoin="round" />
  </g>
</svg>
